<svg id="svg" xmlns="http://www.w3.org/2000/svg" xmlns:xlink="http://www.w3.org/1999/xlink" width="400" height="342.5" viewBox="0, 0, 400,342.5"><g id="svgg"><path id="path0" d="M197.500 27.757 C 178.021 38.464,148.396 54.731,131.667 63.906 C 114.938 73.081,85.313 89.342,65.833 100.041 C 46.354 110.741,25.917 121.960,20.417 124.973 L 10.417 130.452 10.641 133.767 C 10.764 135.591,11.858 143.646,13.073 151.667 L 15.282 166.250 21.599 173.792 C 52.741 210.974,60.862 220.635,62.110 221.986 C 62.583 222.498,67.815 228.729,73.736 235.833 C 79.658 242.938,84.727 248.938,85.001 249.167 C 85.275 249.396,96.156 262.333,109.181 277.917 C 122.205 293.500,133.307 306.710,133.852 307.273 C 134.397 307.835,139.997 314.492,146.297 322.064 C 152.596 329.637,158.296 335.833,158.962 335.833 C 159.629 335.833,172.041 328.389,186.545 319.290 C 225.898 294.604,283.781 258.344,336.667 225.249 C 362.563 209.044,384.013 195.140,384.334 194.351 C 384.655 193.562,385.880 186.729,387.056 179.167 C 388.231 171.604,389.386 164.232,389.620 162.783 C 390.065 160.039,238.183 9.128,234.364 8.520 C 233.568 8.393,216.979 17.049,197.500 27.757 M310.344 86.191 C 351.882 126.950,385.579 160.578,385.226 160.920 C 384.872 161.261,371.271 169.752,355.000 179.787 C 326.922 197.104,280.789 225.585,217.917 264.417 C 202.333 274.042,182.731 286.173,174.357 291.375 C 165.982 296.577,158.793 300.833,158.381 300.833 C 157.969 300.833,152.268 294.552,145.713 286.875 C 122.544 259.741,109.965 244.990,76.248 205.417 C 57.504 183.417,35.962 158.172,28.376 149.317 C 20.790 140.463,14.479 132.930,14.351 132.578 C 14.223 132.226,21.348 127.994,30.184 123.173 C 45.049 115.064,85.547 92.854,163.333 50.150 C 180.521 40.714,203.208 28.214,213.750 22.370 C 224.292 16.527,233.345 11.822,233.868 11.915 C 234.391 12.008,268.805 45.432,310.344 86.191 M201.262 41.276 C 185.227 50.160,171.973 57.831,171.809 58.324 C 171.507 59.228,190.855 79.786,220.834 110.417 C 229.806 119.583,251.688 142.271,269.461 160.833 C 287.234 179.396,302.263 194.925,302.860 195.342 C 303.903 196.072,314.003 190.186,351.250 167.143 C 367.009 157.394,366.324 158.405,360.814 153.017 C 358.304 150.563,328.218 120.755,293.957 86.777 C 259.696 52.800,231.384 25.028,231.041 25.062 C 230.697 25.095,217.297 32.392,201.262 41.276 M228.359 44.127 C 227.416 45.295,226.018 47.469,225.251 48.958 C 223.939 51.509,223.595 51.667,219.347 51.667 C 209.513 51.667,204.583 56.984,204.583 67.592 L 204.583 74.055 200.133 76.611 C 197.686 78.016,195.248 79.163,194.717 79.158 C 193.824 79.150,175.000 59.802,175.000 58.893 C 175.000 58.671,182.031 54.634,190.625 49.922 C 199.219 45.211,211.500 38.422,217.917 34.836 L 229.583 28.317 229.828 35.161 C 230.039 41.047,229.833 42.302,228.359 44.127 M239.144 35.394 C 245.341 41.646,245.384 41.391,238.205 41.000 C 232.222 40.674,231.705 40.188,231.678 34.860 C 231.647 28.713,232.589 28.780,239.144 35.394 M244.630 44.661 C 254.742 49.460,261.430 66.267,255.970 73.161 C 254.547 74.957,253.014 77.398,252.563 78.585 C 250.553 83.871,242.101 82.593,241.306 76.883 C 240.441 70.669,236.121 62.671,230.692 57.234 C 225.880 52.414,225.858 52.369,227.101 49.966 C 230.659 43.086,237.163 41.118,244.630 44.661 M225.166 55.503 C 236.950 61.596,242.965 80.804,235.551 88.665 C 230.712 93.795,215.000 91.720,215.000 85.951 C 215.000 83.908,218.003 81.122,218.549 82.657 C 219.483 85.278,220.173 82.196,219.303 79.292 C 217.745 74.092,212.143 68.333,208.641 68.333 C 205.766 68.333,205.759 68.324,206.314 65.208 C 208.030 55.556,216.669 51.109,225.166 55.503 M265.850 62.134 C 272.625 68.966,273.398 70.015,271.277 69.498 C 269.917 69.166,267.154 68.862,265.137 68.823 L 261.469 68.750 259.992 63.333 C 259.179 60.354,258.242 57.073,257.910 56.042 C 257.021 53.284,257.244 53.455,265.850 62.134 M152.083 68.632 C 148.417 70.614,134.729 78.159,121.667 85.399 C 108.604 92.638,88.729 103.619,77.500 109.799 C 29.018 136.484,32.960 133.816,36.329 137.676 C 37.660 139.201,51.500 155.228,67.083 173.292 C 82.667 191.355,108.545 221.348,124.591 239.942 C 140.636 258.536,155.414 275.719,157.429 278.125 C 162.115 283.718,159.755 284.465,183.777 269.785 C 259.849 223.295,290.239 204.453,290.594 203.557 C 291.073 202.346,289.825 200.995,237.529 146.125 C 185.905 91.960,159.882 64.996,159.250 65.014 C 158.975 65.022,155.750 66.650,152.083 68.632 M158.333 75.859 C 158.333 81.839,158.072 83.486,157.061 83.874 C 153.912 85.082,151.503 91.356,151.791 97.597 L 152.066 103.542 145.583 107.224 L 139.100 110.906 135.751 108.040 C 127.280 100.789,114.277 103.639,111.671 113.319 L 110.818 116.486 107.437 115.627 C 103.322 114.583,98.709 115.757,95.146 118.755 C 92.967 120.588,91.975 122.327,90.542 126.821 C 90.162 128.012,89.634 128.098,87.054 127.385 C 80.031 125.446,72.174 129.738,70.105 136.643 C 69.168 139.773,68.935 139.969,66.839 139.382 C 60.703 137.663,53.603 139.983,50.546 144.706 C 49.558 146.231,48.508 147.484,48.212 147.490 C 47.601 147.501,37.494 135.746,37.511 135.042 C 37.517 134.790,49.402 128.021,63.922 120.000 C 78.442 111.979,105.343 97.085,123.703 86.902 C 142.062 76.720,157.365 68.376,157.708 68.361 C 158.052 68.346,158.333 71.720,158.333 75.859 M166.806 75.482 C 172.950 81.865,173.506 82.841,170.302 81.623 C 169.014 81.133,166.451 80.843,164.605 80.978 L 161.250 81.223 161.004 75.611 C 160.704 68.789,160.370 68.797,166.806 75.482 M210.391 70.792 C 210.660 71.227,210.144 71.977,209.245 72.458 C 207.086 73.613,206.667 73.564,206.667 72.153 C 206.667 70.414,209.514 69.373,210.391 70.792 M270.318 71.741 C 281.990 74.982,291.086 94.467,284.675 102.500 C 283.029 104.563,281.679 106.706,281.675 107.262 C 281.635 112.204,264.795 109.779,262.786 104.543 C 262.109 102.779,265.350 99.016,266.530 100.197 C 268.297 101.964,268.577 100.044,267.111 96.206 C 264.877 90.357,260.168 85.833,256.313 85.833 C 253.243 85.833,253.209 85.796,253.757 83.125 C 255.633 73.988,262.187 69.483,270.318 71.741 M213.273 76.362 C 216.008 79.839,215.459 81.047,209.620 84.406 C 203.198 88.100,202.834 88.132,199.837 85.261 C 196.654 82.211,196.649 82.219,203.958 77.960 C 211.592 73.512,211.097 73.597,213.273 76.362 M302.241 98.870 C 302.129 98.982,300.570 98.744,298.778 98.340 C 296.985 97.935,294.427 97.823,293.092 98.090 C 290.272 98.654,289.217 97.494,289.143 93.750 C 289.099 91.523,288.656 89.993,286.249 83.750 C 285.896 82.833,289.396 85.814,294.026 90.374 C 298.657 94.934,302.354 98.757,302.241 98.870 M174.032 86.157 C 183.997 93.062,189.309 108.035,183.958 114.136 C 182.469 115.835,180.614 118.406,179.838 119.850 C 177.391 124.397,164.889 121.689,162.763 116.151 C 162.108 114.443,164.130 112.265,165.396 113.316 C 168.439 115.841,167.100 110.036,163.259 104.051 C 160.552 99.833,156.604 97.026,154.508 97.830 C 152.663 98.538,153.049 94.241,155.208 90.030 C 158.781 83.063,167.099 81.352,174.032 86.157 M250.972 87.152 C 251.049 88.718,251.142 90.583,251.181 91.295 C 251.221 92.042,249.272 93.685,246.579 95.177 L 241.909 97.764 238.928 95.386 L 235.947 93.007 238.317 90.308 C 239.620 88.824,240.916 86.884,241.198 85.998 C 241.619 84.670,242.514 84.378,246.271 84.345 L 250.833 84.304 250.972 87.152 M214.476 90.419 L 217.703 93.269 215.629 95.733 L 213.554 98.198 209.594 94.178 L 205.634 90.157 208.026 88.862 C 211.098 87.198,210.728 87.108,214.476 90.419 M257.920 88.339 C 258.206 88.801,257.837 89.410,257.100 89.692 C 255.505 90.304,254.615 89.630,255.382 88.389 C 256.074 87.269,257.245 87.246,257.920 88.339 M261.931 94.836 C 263.895 98.198,263.803 98.311,255.421 102.843 C 247.060 107.364,247.408 107.314,245.596 104.246 C 243.464 100.637,243.579 100.474,251.458 95.922 C 259.624 91.205,259.800 91.187,261.931 94.836 M233.217 95.515 C 244.741 101.258,251.746 118.906,245.260 125.859 L 241.992 129.363 229.121 115.878 C 214.484 100.542,215.256 101.656,217.204 98.682 C 220.543 93.587,226.846 92.340,233.217 95.515 M194.378 104.398 C 199.106 109.577,200.637 111.717,199.315 111.297 C 198.261 110.963,195.828 110.577,193.908 110.441 C 190.325 110.187,188.375 108.217,188.346 104.823 C 188.339 104.037,187.565 101.445,186.625 99.061 C 184.540 93.770,184.905 94.021,194.378 104.398 M157.500 100.744 C 157.500 101.767,155.152 102.587,154.633 101.747 C 154.401 101.372,154.452 100.826,154.745 100.533 C 155.539 99.739,157.500 99.889,157.500 100.744 M301.390 101.614 C 313.077 106.920,320.509 124.961,314.247 132.823 C 312.828 134.605,311.667 136.376,311.667 136.760 C 311.667 137.936,306.898 140.000,304.181 140.000 C 299.410 140.000,291.667 135.587,291.667 132.867 C 291.667 131.321,295.618 128.956,296.074 130.230 C 296.999 132.817,297.655 129.636,296.791 126.751 C 295.129 121.205,288.627 114.734,285.264 115.280 C 281.779 115.846,281.479 113.211,284.375 107.468 C 287.657 100.960,294.651 98.554,301.390 101.614 M160.372 106.299 C 162.898 110.153,161.876 111.696,153.890 116.083 C 149.843 118.307,146.093 119.952,145.557 119.738 C 144.116 119.163,141.107 113.108,142.085 112.752 C 142.543 112.585,146.104 110.606,150.000 108.353 C 158.291 103.558,158.543 103.508,160.372 106.299 M267.862 111.758 C 269.749 112.615,273.188 113.305,275.625 113.315 L 280.000 113.333 280.125 116.667 C 280.194 118.500,280.288 120.444,280.333 120.987 C 280.379 121.530,278.226 123.255,275.548 124.819 L 270.679 127.664 268.465 125.594 C 264.699 122.074,260.763 120.504,255.625 120.473 L 250.833 120.444 250.833 117.826 C 250.833 116.386,250.609 114.088,250.336 112.720 C 249.874 110.412,250.158 110.046,254.257 107.680 L 258.676 105.128 261.575 107.674 C 263.170 109.074,265.999 110.912,267.862 111.758 M130.250 107.178 C 142.461 113.337,149.504 130.993,142.608 138.160 C 140.715 140.127,139.167 142.270,139.167 142.922 C 139.167 145.554,133.738 146.665,130.094 144.779 C 128.556 143.983,127.743 142.335,126.506 137.500 C 124.645 130.228,122.334 126.386,116.562 120.966 C 108.423 113.324,119.771 101.893,130.250 107.178 M325.625 121.198 C 332.740 128.113,333.833 129.738,330.625 128.633 C 329.594 128.277,326.693 127.971,324.179 127.952 L 319.607 127.917 318.962 123.434 C 318.607 120.968,317.562 117.247,316.641 115.164 L 314.966 111.377 316.858 112.946 C 317.899 113.809,321.844 117.522,325.625 121.198 M199.735 114.240 C 206.540 117.534,213.671 128.481,214.706 137.225 C 215.216 141.532,214.873 142.156,207.108 151.042 C 204.516 154.008,196.675 152.422,196.658 148.929 C 196.627 142.728,192.271 134.102,186.336 128.489 C 181.145 123.579,180.814 122.357,183.558 118.248 C 187.258 112.710,193.420 111.183,199.735 114.240 M162.775 125.252 C 161.271 126.537,159.626 128.974,159.119 130.669 L 158.197 133.750 153.790 133.471 L 149.382 133.192 148.917 129.304 C 148.661 127.166,148.238 124.854,147.977 124.167 C 147.638 123.275,149.108 122.040,153.106 119.858 L 158.711 116.799 162.110 119.858 L 165.509 122.917 162.775 125.252 M109.542 118.679 C 120.043 123.066,129.054 142.913,123.080 148.494 C 121.457 150.010,119.414 152.563,118.540 154.167 C 115.118 160.444,107.506 158.314,105.942 150.643 C 104.433 143.246,102.056 138.959,96.554 133.710 C 91.908 129.278,91.790 129.059,92.666 126.445 C 95.134 119.082,102.449 115.715,109.542 118.679 M287.500 118.277 C 287.500 119.173,284.258 120.369,283.604 119.715 C 283.363 119.474,283.414 118.878,283.716 118.389 C 284.391 117.296,287.500 117.204,287.500 118.277 M291.092 124.337 C 293.257 127.248,292.678 127.944,283.996 132.863 C 276.828 136.924,276.467 136.917,273.968 132.660 L 272.519 130.192 279.385 125.984 C 287.034 121.295,288.660 121.066,291.092 124.337 M261.068 124.457 C 273.193 129.538,281.463 149.073,274.622 156.471 L 271.743 159.583 258.734 146.667 C 243.677 131.716,243.610 131.625,245.517 128.714 C 248.525 124.123,255.630 122.178,261.068 124.457 M179.811 126.312 C 190.307 131.542,197.528 148.970,192.875 157.840 C 188.976 165.272,175.859 166.728,175.824 159.732 C 175.794 153.543,171.784 146.018,165.066 139.542 C 156.075 130.875,167.819 120.336,179.811 126.312 M230.000 141.909 C 230.000 142.288,229.559 142.326,229.019 141.992 C 228.480 141.659,225.761 141.168,222.978 140.901 L 217.917 140.417 217.209 137.083 C 216.820 135.250,215.807 131.712,214.957 129.222 L 213.413 124.693 221.706 132.956 C 226.268 137.501,230.000 141.529,230.000 141.909 M89.098 130.798 C 106.554 139.704,109.686 169.147,93.179 169.164 C 87.291 169.170,86.292 168.274,84.678 161.538 C 82.943 154.298,79.632 148.765,74.534 144.588 C 65.639 137.299,78.315 125.297,89.098 130.798 M333.700 132.843 C 347.691 141.043,351.878 163.115,340.496 168.672 C 331.893 172.872,318.500 166.836,323.780 161.139 C 324.909 159.920,325.833 159.353,325.833 159.878 C 325.833 160.404,326.208 160.833,326.667 160.833 C 328.264 160.833,327.483 156.967,325.140 153.272 C 321.645 147.761,317.739 144.744,314.848 145.322 C 312.703 145.751,312.500 145.582,312.500 143.367 C 312.500 132.419,323.586 126.916,333.700 132.843 M290.896 137.193 C 293.912 140.467,298.934 142.461,304.216 142.482 L 308.849 142.500 309.662 147.413 L 310.474 152.325 306.149 154.913 C 300.915 158.043,301.492 158.029,297.233 155.120 C 292.634 151.979,288.021 150.544,284.176 151.060 L 281.047 151.479 280.067 145.545 C 279.528 142.281,279.386 139.508,279.752 139.384 C 280.117 139.259,281.917 138.234,283.750 137.105 C 287.957 134.514,288.434 134.520,290.896 137.193 M158.977 137.978 C 170.367 143.654,177.457 161.660,171.043 168.619 C 169.198 170.620,167.442 173.036,167.140 173.987 C 165.264 179.899,156.480 176.650,154.686 169.382 C 152.702 161.339,150.533 157.412,145.387 152.546 C 139.892 147.349,139.496 144.915,143.418 140.448 C 147.701 135.569,152.587 134.794,158.977 137.978 M40.417 167.051 C 53.250 182.120,74.011 206.480,86.553 221.183 C 99.094 235.887,117.469 257.446,127.386 269.093 C 137.303 280.741,147.913 293.193,150.964 296.764 L 156.511 303.258 157.065 310.171 C 157.370 313.973,157.499 320.032,157.352 323.636 L 157.083 330.189 127.083 294.499 C 110.583 274.869,90.757 251.295,83.024 242.113 C 75.292 232.930,62.340 217.542,54.244 207.917 C 46.147 198.292,34.722 184.711,28.855 177.737 L 18.188 165.058 16.186 152.321 C 13.710 136.563,13.674 135.598,15.653 137.951 C 16.440 138.886,27.583 151.981,40.417 167.051 M69.800 143.549 C 80.539 150.716,86.463 167.272,80.373 173.101 C 78.564 174.833,76.684 176.973,76.197 177.857 C 75.215 179.637,50.833 152.514,50.833 149.642 C 50.833 142.523,62.599 138.743,69.800 143.549 M354.571 149.988 C 359.094 154.532,361.708 157.757,361.221 158.192 C 359.779 159.477,347.461 166.667,346.701 166.667 C 346.294 166.667,346.573 165.448,347.322 163.958 C 349.468 159.687,349.619 152.018,347.660 146.875 C 345.444 141.059,345.878 141.254,354.571 149.988 M228.799 144.663 C 235.300 147.747,243.111 159.740,243.887 167.828 C 244.299 172.121,240.744 178.669,236.035 182.292 C 230.576 186.492,215.048 177.789,220.270 173.455 C 221.075 172.787,221.634 172.801,222.339 173.506 C 224.134 175.300,224.416 173.394,222.932 169.507 C 220.991 164.424,215.182 158.333,212.275 158.333 C 209.391 158.333,209.141 157.733,210.120 153.142 C 211.876 144.909,220.790 140.862,228.799 144.663 M317.841 148.211 C 318.320 148.986,314.212 151.156,313.539 150.484 C 313.313 150.257,313.349 149.493,313.621 148.786 C 314.145 147.419,317.103 147.017,317.841 148.211 M138.277 149.971 C 149.162 155.524,156.721 174.248,150.677 180.684 C 149.093 182.370,147.159 184.781,146.379 186.042 C 143.842 190.143,135.615 188.759,130.443 183.360 C 128.329 181.154,128.245 180.824,129.387 179.195 C 130.455 177.670,130.697 177.610,131.141 178.765 C 131.423 179.502,132.023 179.878,132.473 179.600 C 133.615 178.895,131.171 172.883,127.998 168.592 C 125.552 165.284,123.968 164.087,120.625 163.018 C 117.376 161.980,120.574 152.817,125.160 150.020 C 128.691 147.867,134.113 147.847,138.277 149.971 M320.773 153.862 C 323.772 157.675,323.360 158.476,316.344 162.465 C 314.917 163.276,312.356 164.771,310.652 165.786 C 307.102 167.902,306.638 167.752,304.259 163.720 L 302.517 160.767 305.217 159.166 C 306.702 158.286,309.979 156.248,312.500 154.637 C 318.025 151.108,318.566 151.057,320.773 153.862 M292.083 155.726 C 304.870 161.566,312.436 185.624,303.268 191.290 C 302.453 191.794,275.097 164.436,274.278 162.299 C 272.210 156.901,284.623 152.318,292.083 155.726 M206.665 157.604 C 206.666 158.807,206.888 160.899,207.159 162.252 C 207.622 164.568,207.318 164.911,202.017 168.071 L 196.383 171.428 192.865 168.839 L 189.347 166.250 192.164 163.750 C 193.713 162.375,195.533 159.888,196.210 158.224 C 197.878 154.120,206.662 153.599,206.665 157.604 M259.531 173.221 C 259.377 173.389,258.052 173.108,256.585 172.596 C 255.118 172.085,252.329 171.667,250.387 171.667 L 246.856 171.667 246.262 167.709 C 245.936 165.533,244.956 161.877,244.085 159.584 C 243.214 157.292,242.501 155.253,242.500 155.053 C 242.500 154.853,246.395 158.790,251.155 163.803 C 255.915 168.815,259.684 173.054,259.531 173.221 M115.208 160.335 C 116.368 159.979,116.667 160.390,116.667 162.340 C 116.667 163.688,116.883 165.875,117.148 167.198 C 117.584 169.378,117.289 169.778,114.023 171.433 C 112.040 172.438,109.011 174.100,107.292 175.127 L 104.167 176.994 101.269 174.185 L 98.371 171.376 100.718 169.949 C 103.790 168.080,106.423 164.672,107.070 161.725 C 107.564 159.476,107.738 159.397,110.670 160.072 C 112.364 160.462,114.406 160.581,115.208 160.335 M214.167 161.667 C 214.167 162.462,211.589 163.534,211.028 162.972 C 210.808 162.752,210.847 162.000,211.116 161.300 C 211.597 160.046,214.167 160.355,214.167 161.667 M384.082 178.420 C 382.800 186.386,381.290 193.194,380.680 193.754 C 380.077 194.307,362.896 205.189,342.500 217.935 C 322.104 230.681,298.854 245.233,290.833 250.274 C 282.813 255.314,262.188 268.245,245.000 279.008 C 227.813 289.771,201.812 306.054,187.222 315.191 C 172.632 324.329,160.578 331.680,160.435 331.528 C 160.293 331.375,159.907 325.033,159.577 317.434 L 158.977 303.617 216.780 267.918 C 337.991 193.058,352.546 184.060,368.750 173.977 C 377.917 168.273,385.635 163.716,385.902 163.849 C 386.169 163.983,385.350 170.540,384.082 178.420 M217.478 167.664 C 219.519 171.021,219.345 171.228,209.857 176.704 L 202.276 181.079 200.698 179.081 C 197.076 174.497,196.983 174.690,205.229 169.711 C 214.209 164.288,215.313 164.104,217.478 167.664 M327.029 171.758 C 328.892 172.604,331.495 173.305,332.812 173.315 C 334.754 173.330,333.174 174.567,324.479 179.843 C 318.578 183.423,312.670 187.061,311.349 187.927 L 308.948 189.502 309.682 187.459 C 310.581 184.961,310.640 177.294,309.792 173.326 C 309.182 170.476,309.276 170.336,313.521 167.780 L 317.876 165.157 320.758 167.688 C 322.344 169.080,325.166 170.912,327.029 171.758 M122.863 166.579 C 123.116 166.990,122.794 167.528,122.148 167.777 C 121.501 168.025,120.764 167.689,120.512 167.031 C 120.013 165.730,122.091 165.331,122.863 166.579 M187.571 168.787 C 198.807 174.597,206.231 194.196,199.792 201.049 C 198.302 202.634,196.495 204.796,195.775 205.854 C 192.283 210.989,185.098 208.081,183.369 200.833 C 181.668 193.709,178.545 188.326,173.215 183.333 C 168.411 178.835,168.336 178.695,169.155 175.786 C 171.260 168.306,180.126 164.937,187.571 168.787 M126.229 172.459 C 128.132 176.139,127.833 176.998,123.958 178.975 C 122.010 179.970,118.126 182.111,115.326 183.735 L 110.235 186.687 107.911 183.176 C 106.634 181.245,105.924 179.546,106.336 179.401 C 106.747 179.255,110.458 177.109,114.583 174.631 C 123.329 169.378,124.520 169.155,126.229 172.459 M96.507 174.745 C 107.280 180.892,114.532 199.764,108.144 205.030 C 106.470 206.410,104.865 208.280,104.577 209.186 C 103.683 212.005,102.318 211.010,94.483 201.826 C 75.466 179.535,77.186 181.937,78.310 179.224 C 81.224 172.189,88.770 170.331,96.507 174.745 M258.002 175.756 C 269.198 180.840,277.792 200.339,272.353 208.314 C 266.273 217.227,257.011 217.686,255.141 209.167 C 253.477 201.580,250.651 196.634,244.670 190.842 C 239.967 186.286,239.167 185.112,239.599 183.393 C 241.529 175.701,250.074 172.155,258.002 175.756 M223.329 184.167 C 223.806 184.167,222.506 185.786,220.441 187.765 C 218.286 189.830,216.473 192.425,216.187 193.856 C 215.701 196.288,215.571 196.348,210.851 196.300 L 206.013 196.250 205.622 191.667 C 205.407 189.146,204.965 186.461,204.639 185.700 C 204.177 184.623,205.299 183.584,209.726 180.990 L 215.406 177.662 218.934 180.914 C 220.875 182.703,222.853 184.167,223.329 184.167 M166.432 181.289 C 177.816 186.962,185.714 205.990,179.476 212.713 C 178.096 214.200,176.328 216.448,175.548 217.708 C 174.290 219.739,173.631 219.999,169.772 219.987 C 164.180 219.971,163.785 219.654,162.514 214.167 C 160.827 206.879,157.622 201.204,152.363 196.187 C 146.939 191.014,146.785 190.502,149.216 185.738 C 152.391 179.514,159.291 177.731,166.432 181.289 M127.170 184.383 C 128.070 185.418,129.919 187.094,131.278 188.106 C 132.968 189.365,133.322 189.956,132.398 189.974 C 130.423 190.012,124.444 196.842,123.794 199.801 C 123.253 202.261,123.145 202.314,120.260 201.517 C 118.623 201.065,116.630 200.866,115.831 201.075 C 114.631 201.389,114.293 200.713,113.886 197.186 C 113.616 194.838,113.184 192.167,112.927 191.250 C 112.542 189.878,113.530 188.960,118.521 186.057 C 125.661 181.904,125.107 182.011,127.170 184.383 M238.068 188.407 C 251.680 194.996,258.049 218.082,248.192 225.101 C 243.757 228.258,235.000 228.253,235.000 225.093 C 235.000 223.093,232.138 214.144,230.527 211.109 C 229.135 208.485,226.995 206.119,221.765 201.421 C 217.934 197.978,217.854 197.068,220.934 191.977 C 224.086 186.765,231.490 185.222,238.068 188.407 M287.203 202.858 C 286.987 203.621,273.102 212.544,272.721 212.165 C 272.613 212.057,273.270 210.510,274.179 208.725 C 276.361 204.446,276.356 197.226,274.167 191.467 C 273.251 189.056,272.510 186.896,272.521 186.667 C 272.533 186.438,275.890 189.813,279.982 194.167 C 284.074 198.521,287.324 202.432,287.203 202.858 M144.616 193.232 C 151.008 196.136,159.453 208.276,160.526 216.104 C 162.789 232.617,144.859 240.330,140.385 224.767 C 138.233 217.280,135.703 213.114,129.987 207.648 L 125.910 203.750 127.042 200.570 C 129.839 192.716,136.947 189.749,144.616 193.232 M219.193 202.102 C 236.270 213.936,236.455 240.462,219.458 240.205 C 216.163 240.156,212.705 238.684,213.653 237.736 C 215.871 235.518,208.091 220.492,202.008 215.244 C 190.920 205.679,206.815 193.524,219.193 202.102 M122.949 205.732 C 135.241 211.316,143.281 231.719,136.042 238.958 C 134.094 240.906,132.500 242.875,132.500 243.333 C 132.500 245.477,113.349 224.987,105.985 214.964 C 101.623 209.027,114.625 201.951,122.949 205.732 M195.561 213.403 C 206.499 218.698,214.545 236.861,210.059 246.128 C 205.961 254.594,193.603 255.486,187.522 247.755 C 185.518 245.207,186.612 241.559,188.828 243.398 C 192.105 246.117,190.688 240.616,186.520 234.438 C 183.775 230.369,180.380 227.500,178.310 227.500 C 176.270 227.500,175.668 225.377,176.661 221.686 C 178.999 213.004,187.259 209.384,195.561 213.403 M259.855 218.226 C 260.667 218.741,260.142 219.410,257.879 220.745 C 255.383 222.218,254.896 222.307,255.315 221.214 C 255.600 220.471,255.833 219.332,255.833 218.682 C 255.833 217.383,258.117 217.124,259.855 218.226 M170.208 223.322 C 173.177 223.333,173.333 223.469,173.333 226.047 C 173.333 227.540,173.664 229.914,174.068 231.323 C 174.792 233.848,174.708 233.943,168.311 237.776 C 160.557 242.423,161.375 242.350,157.390 238.750 C 155.615 237.146,153.694 235.833,153.123 235.833 C 152.551 235.832,153.697 235.033,155.669 234.057 C 159.626 232.099,163.333 227.375,163.333 224.293 C 163.333 222.639,163.648 222.390,165.208 222.808 C 166.240 223.084,168.490 223.316,170.208 223.322 M180.363 230.746 C 180.616 231.156,180.300 231.693,179.660 231.939 C 178.438 232.407,177.500 231.867,177.500 230.694 C 177.500 229.764,179.781 229.805,180.363 230.746 M239.280 230.684 C 240.343 231.125,239.829 231.753,236.940 233.539 C 234.904 234.798,233.436 235.509,233.677 235.118 C 233.919 234.727,234.494 233.415,234.954 232.203 C 235.798 229.984,236.773 229.642,239.280 230.684 M183.944 237.458 C 184.968 238.969,185.614 240.514,185.381 240.891 C 184.956 241.578,168.580 251.667,167.890 251.667 C 167.299 251.667,163.057 244.998,163.420 244.640 C 164.826 243.251,180.597 234.232,181.250 234.443 C 181.708 234.591,182.921 235.948,183.944 237.458 M152.419 239.125 C 162.039 244.033,170.754 260.939,168.258 269.853 C 167.326 273.180,163.318 278.333,161.662 278.333 C 160.023 278.333,134.167 248.218,134.167 246.308 C 134.167 239.577,144.970 235.325,152.419 239.125 M219.125 243.322 C 220.600 243.336,219.767 244.126,215.753 246.522 L 212.756 248.311 213.669 245.365 C 214.403 243.002,214.913 242.508,216.250 242.865 C 217.167 243.110,218.460 243.316,219.125 243.322 M185.049 249.635 C 188.124 252.909,192.126 255.082,196.207 255.694 L 199.910 256.250 185.656 265.000 C 169.177 275.116,169.528 274.938,170.838 272.491 C 171.733 270.820,171.666 264.697,170.667 256.760 C 170.458 255.097,171.374 254.171,176.229 251.135 C 183.078 246.851,182.522 246.946,185.049 249.635 " stroke="none" fill="#FFF" fill-rule="evenodd"></path></g></svg>