<?xml version="1.0" encoding="UTF-8"?> <!-- Generator: Adobe Illustrator 21.1.0, SVG Export Plug-In . SVG Version: 6.00 Build 0) --> <svg xmlns="http://www.w3.org/2000/svg" xmlns:xlink="http://www.w3.org/1999/xlink" id="Layer_1" x="0px" y="0px" viewBox="0 0 88 100" style="enable-background:new 0 0 618.5 100;" xml:space="preserve" fill="#FFF"> <g> <path  d="M141.9,39.7c-3.5-3.6-7.7-5.4-12.8-5.4c-5,0-9.3,1.8-12.8,5.4c-3.5,3.6-5.2,7.9-5.2,13.1s1.7,9.5,5.2,13 c3.5,3.6,7.7,5.4,12.8,5.4c5,0,9.3-1.8,12.8-5.4s5.2-7.9,5.2-13S145.3,43.3,141.9,39.7 M148.1,71.5c-5.1,5-11.5,7.5-19,7.5 c-7.6,0-13.9-2.5-19-7.5s-7.7-11.3-7.7-18.8s2.6-13.7,7.7-18.8c5.1-5,11.5-7.5,19-7.5c7.6,0,13.9,2.5,19,7.5s7.7,11.3,7.7,18.8 S153.3,66.5,148.1,71.5"></path> <path d="M175.3,59.2c0,3.7,1.1,6.7,3.3,9c2.2,2.4,4.9,3.5,8.1,3.5s6-1.2,8.4-3.5s3.6-5.3,3.6-9.1c0-3.7-1.2-6.8-3.5-9.2 s-5.1-3.7-8.4-3.7c-3.3,0-6,1.2-8.2,3.7C176.4,52.5,175.3,55.5,175.3,59.2 M188.1,39.2c5.2,0,9.6,1.8,13.3,5.4 c3.7,3.6,5.5,8.4,5.5,14.3c0,6-1.8,10.8-5.5,14.5s-7.9,5.6-12.8,5.6c-4.9,0-9.2-2.1-13.1-6.4v19.9h-8.1V39.8h8.1v6.8 C178.7,41.7,182.9,39.2,188.1,39.2"></path> <path d="M223.7,56.3h22.2c0-3.2-1-5.7-3.1-7.5c-2-1.7-4.5-2.6-7.5-2.6s-5.7,0.9-8,2.7C224.9,50.8,223.7,53.2,223.7,56.3 M254,62.7 h-30.3c0.2,2.8,1.5,5.1,3.9,6.8s5.1,2.6,8.1,2.6c4.8,0,8.5-1.5,11.1-4.6l4.7,5.1c-4.2,4.3-9.6,6.5-16.3,6.5c-5.4,0-10-1.8-13.8-5.4 s-5.7-8.5-5.7-14.5s1.9-10.9,5.8-14.5c3.9-3.6,8.4-5.4,13.7-5.4s9.7,1.6,13.4,4.8s5.5,7.5,5.5,13.1L254,62.7L254,62.7z"></path> <path d="M272.9,57.5v20.9h-8.1V39.8h8.1v7.1c1.3-2.4,3.1-4.2,5.4-5.6c2.3-1.4,4.8-2,7.5-2c4.4,0,7.9,1.3,10.6,4s4,6.5,4,11.6v23.7 h-8.1V57.3c0-7.1-3-10.7-8.9-10.7c-2.8,0-5.3,0.9-7.3,2.8C273.9,51.2,272.9,54,272.9,57.5"></path> <path d="M340.6,52.2c1.4-1.5,2-3.8,2-6.7s-0.9-5-2.7-6.3c-1.8-1.2-4.5-1.9-8.2-1.9h-6.5v17.1h7.6C336.6,54.5,339.2,53.7,340.6,52.2 M348.9,32.2c3.6,3,5.3,7.7,5.3,14s-1.8,10.9-5.5,13.8s-9.2,4.4-16.8,4.4h-6.8v14.2h-11.3V27.7h18 C339.6,27.7,345.3,29.2,348.9,32.2"></path> <path d="M401.8,53.9c0-4.3-1.4-8-4.2-11.1c-2.8-3.1-6.2-4.6-10.2-4.6c-4.1,0-7.5,1.5-10.3,4.6s-4.2,6.8-4.2,11.1s1.4,8,4.2,11.1 c2.8,3,6.2,4.5,10.3,4.5c4.1,0,7.5-1.5,10.2-4.5C400.4,61.9,401.8,58.2,401.8,53.9 M405.5,71.8c-4.9,4.8-11,7.2-18.1,7.2 c-7.2,0-13.2-2.4-18.1-7.2c-4.9-4.8-7.4-10.8-7.4-17.9s2.5-13.1,7.4-17.9s11-7.2,18.1-7.2c7.2,0,13.2,2.4,18.1,7.2 s7.4,10.8,7.4,17.9S410.4,67,405.5,71.8"></path> <polygon points="437.5,56.9 446.5,27.7 458.3,27.7 467.3,56.9 477.4,27.7 489.7,27.7 471.9,78.5 463.5,78.5 452.4,43.2 441.3,78.5 432.9,78.5 415.2,27.7 427.5,27.7 "></polygon> <polygon points="534.2,27.7 534.2,37.8 508.9,37.8 508.9,48.2 531.6,48.2 531.6,57.9 508.9,57.9 508.9,68.5 535,68.5 535,78.5 497.5,78.5 497.5,27.7 "></polygon> <path d="M572.6,50.6c1.4-1.3,2.1-3.3,2.1-6S574,40,572.5,39s-4-1.5-7.6-1.5h-8.5v15h8.3C568.6,52.5,571.2,51.8,572.6,50.6 M586.3,44.5c0,8.1-3.2,13.4-9.7,15.8l12.9,18.2h-14l-11.3-16.2h-7.9v16.2H545V27.7h19.3c7.9,0,13.5,1.3,16.9,4 C584.6,34.3,586.3,38.6,586.3,44.5"></path> <path d="M597.4,42.5V30h-4.2c-0.1,0-0.2-0.1-0.3-0.2s-0.1-0.2-0.1-0.4c0-0.1,0-0.2,0.1-0.3c0.1-0.1,0.2-0.1,0.3-0.1h9.4 c0.1,0,0.2,0,0.3,0.1s0.1,0.2,0.1,0.3c0,0.1,0,0.3-0.1,0.4s-0.2,0.2-0.3,0.2h-4.2v12.5c0,0.1,0,0.2-0.1,0.3s-0.2,0.1-0.3,0.1 s-0.2,0-0.3-0.1C597.5,42.8,597.4,42.6,597.4,42.5"></path> <path d="M617.6,42.5V31l-4.5,6.2c-0.1,0.1-0.2,0.2-0.4,0.2l0,0c-0.2,0-0.3-0.1-0.4-0.2l-4.5-6.2v11.5c0,0.1,0,0.2-0.1,0.3 s-0.2,0.1-0.3,0.1s-0.3,0-0.3-0.1c-0.1-0.1-0.2-0.2-0.2-0.3V29.6c0-0.2,0.1-0.3,0.2-0.4l0,0c0.3-0.2,0.5-0.1,0.7,0.1l5,6.9l5-6.9 c0.1-0.1,0.2-0.2,0.3-0.2s0.3,0,0.4,0.1c0.1,0.1,0.2,0.3,0.2,0.4v12.9c0,0.1,0,0.2-0.1,0.3s-0.2,0.1-0.3,0.1s-0.2,0-0.3-0.1 C617.6,42.8,617.6,42.6,617.6,42.5"></path> <path d="M44.3,50"></path> <polygon points="44.3,0 0,25 0,75 44.3,100 88.7,75 88.7,25 "></polygon> </g> </svg> 