<svg width="123.822" height="105" xmlns="http://www.w3.org/2000/svg">
 <defs>
  <style type="text/css">
   <![CDATA[
    .fil0 {fill:#FFF}
    .fil1 {fill:#FFF}
   ]]>
  </style>
 </defs>
 <g>
  <title>background</title>
  <rect fill="none" id="canvas_background" height="107" width="125.822" y="-1" x="-1"/>
 </g>
 <g>
  <title>Layer 1</title>
  <g id="Camada_x0020_1">
   <metadata id="CorelCorpID_0Corel-Layer"/>
   <g id="_90919680">
    <path d="m56.7685,45.7277l0,-44.5215c5.15158,0.11894 10.2834,0.85204 15.2764,2.21919c-0.51523,3.05133 0.79245,6.10255 3.32867,7.86598l-14.7414,35.2487c-1.26811,-0.41607 -2.55601,-0.67363 -3.86369,-0.81235l0.00002,-0.00002z" class="fil0" id="_124851560"/>
    <path d="m52.8816,45.7277l0,-44.4621c-7.01406,0.3566 -13.8696,2.08046 -20.2298,5.07232l16.4851,40.1624c1.20864,-0.39617 2.45685,-0.65384 3.74474,-0.77267l-0.00004,0.00005z" class="fil0" id="_124851488"/>
    <path d="m46.1582,47.6186l-16.4057,-39.9445c-6.30086,3.22975 -11.9873,7.58876 -16.7426,12.8394l29.5224,29.5224c1.1096,-0.93118 2.31823,-1.74354 3.62592,-2.41728l-0.00002,-0.00002z" class="fil0" id="_124851416"/>
    <path d="m10.9657,22.9313c-4.33923,5.15158 -7.62821,11.1155 -9.66911,17.5154l36.6951,15.3557c0.63394,-1.24833 1.42651,-2.43718 2.33802,-3.50709l-29.364,-29.364l-0.00001,-0.00001z" class="fil0" id="_124851344"/>
    <path d="m36.7035,58.7543l-36.1798,-15.1377c-0.83226,6.45926 -0.67374,12.9978 0.47542,19.3976l34.85241,0c0.11882,-1.44629 0.41607,-2.87292 0.85192,-4.25985l0.00005,-0.00005z" class="fil0" id="_124851272"/>
    <path d="m35.8631,66.2129l-33.9607,0c2.06056,5.34978 4.73551,10.4221 7.94536,15.1575l26.8277,-11.0164c-0.41607,-1.34737 -0.69341,-2.7343 -0.81235,-4.14114l-0.00001,0.00004z" class="fil0" id="_124851200"/>
    <path d="m40.3804,76.7181c-0.95108,-1.10948 -1.76344,-2.31812 -2.41728,-3.62592l-25.8965,10.6202c3.60601,3.58634 7.58864,6.73672 11.8684,9.45124l16.4454,-16.4455l-0.00002,-0.00002z" class="fil0" id="_124851128"/>
    <path d="m60.9707,100.46c-0.3765,-3.07112 1.03022,-6.06309 3.6457,-7.72737l-4.10146,-10.1446c-6.20171,1.92195 -12.9582,0.5548 -17.9116,-3.6457l-15.851,15.8509c10.4815,5.56777 22.5084,7.56886 34.2184,5.66681l-0.00004,-0.00004z" class="fil0" id="_124851056"/>
    <path d="m63.2818,81.4455l4.12124,10.2239c3.19006,-0.5349 6.36022,0.91151 8.06418,3.64582c1.76344,-0.83226 3.50697,-1.70408 5.23084,-2.61548l-13.6913,-13.7111c-1.14917,0.97087 -2.39749,1.80301 -3.72496,2.45685l0,0.00001z" class="fil0" id="_124850984"/>
    <path d="m112.551,70.205c-1.14917,-1.12938 -1.94174,-2.57579 -2.25876,-4.18071l-36.6357,0c-0.31703,3.94294 -1.88226,7.68768 -4.41848,10.6994l14.365,14.3649c10.4418,-5.78564 20.1506,-12.7997 28.9478,-20.8837l0.00014,0.00011z" class="fil0" id="_124850912"/>
    <path d="m91.8559,14.9474c1.72387,1.72375 3.32879,3.54666 4.83455,5.46849l-29.7205,29.7206c-1.08981,-0.9114 -2.25876,-1.68406 -3.50709,-2.33802l14.7414,-35.2486c2.7343,0.5548 5.56765,-0.39628 7.44991,-2.47675c2.17951,1.46619 4.25997,3.1108 6.20171,4.87424l0.00002,0.00004z" class="fil0" id="_124850840"/>
    <path d="m107.824,41.1055c-1.78322,-4.2204 -3.74486,-8.36143 -5.88468,-12.4233c-1.08981,-1.92195 -2.23898,-3.80421 -3.44762,-5.64691l-29.3044,29.3046c0.93118,1.12938 1.74354,2.33802 2.39738,3.62592l36.2394,-14.8603l-0.00008,-0.00001z" class="fil0" id="_124850024"/>
    <path d="m109.085,44.0469c1.76332,4.57688 3.36824,9.23314 4.7553,13.9489c-1.78334,1.12938 -3.05133,2.95217 -3.50709,5.03264l-36.6554,0c-0.11883,-1.40672 -0.37638,-2.79366 -0.81235,-4.14103l36.2196,-14.8405l-0.00006,-0.00001z" class="fil0" id="_124849952"/>
    <g id="svg_1">
     <ellipse ry="4.79488" rx="4.7751" cy="99.552" cx="68.6872" class="fil1" id="_124850768"/>
     <circle r="4.79487" cy="63.8342" cx="119.027" class="fil1" id="_124850696"/>
     <circle r="4.79487" cy="4.79483" cx="79.7374" class="fil1" id="_124850624"/>
    </g>
   </g>
  </g>
 </g>
</svg>